<svg xmlns="http://www.w3.org/2000/svg" xml:space="preserve" width="800" height="800" viewBox="0 0 511.992 511.992"><path d="M85.323 383.717c-1.594 0-3.234-.344-4.766-1.125-5.266-2.625-7.391-9.031-4.75-14.312 4.219-8.5 13.437-33.312 18.187-66.467 3.484-24.312 4.203-49.523 2.109-74.929-2.594-31.78-9.609-63.983-20.828-95.732-1.953-5.562.953-11.656 6.516-13.609 5.547-1.969 11.64.937 13.609 6.5 11.906 33.718 19.312 67.968 22.031 101.795 2.172 27.141 1.344 54.07-2.469 80.039-6.531 44.561-19.531 70.873-20.093 71.967-1.859 3.716-5.625 5.873-9.546 5.873z" style="fill:#434a54"/><path d="M383.997 21.746H106.666a10.653 10.653 0 0 0-8.844 4.719l-63.999 95.17a10.663 10.663 0 0 0 0 11.906l63.999 95.186a10.674 10.674 0 0 0 8.844 4.703h277.331a10.648 10.648 0 0 0 10.655-10.656V32.418c0-5.89-4.764-10.672-10.655-10.672z" style="fill:#3470FF"/><path d="M416.215 458.808c-2.094 0-4.172-.625-5.969-1.812l-26.343-17.812-26.078 17.062a10.688 10.688 0 0 1-11.672 0l-26.094-17.062-26.155 17.406c-3.905 2.625-9.062 2.344-12.687-.625l-21.758-17.906-120.107-1.219c-2.828-.031-5.531-1.188-7.5-3.219s-3.062-4.75-3.016-7.594l1.469-106.686a10.666 10.666 0 0 1 10.671-10.531l296.346.125c2.844 0 5.547 1.125 7.547 3.125l63.999 64.125a10.675 10.675 0 0 1 2 12.312l-21.343 42.654a10.583 10.583 0 0 1-4.672 4.719l-63.781 21.781a10.61 10.61 0 0 1-4.857 1.157z" style="fill:#f6bb42"/><path d="M201.445 291.094c-21.859-22.461-51.155-35.07-82.499-35.492-.547-.016-1.094-.016-1.641-.016-30.999 0-60.233 12-82.326 33.757C12.854 311.154.448 340.247.011 371.31c-.422 31.344 11.375 60.967 33.234 83.436 21.843 22.438 51.14 35.062 82.482 35.5h1.641c31 0 60.233-12 82.327-33.75 22.125-21.812 34.531-50.904 34.968-81.967.422-31.344-11.374-60.969-33.218-83.435z" style="fill:#ffce54"/><path d="M92.885 365.529c4.156 4.156 4.156 10.906 0 15.062a10.636 10.636 0 0 1-15.093 0c-4.156-4.156-4.156-10.906 0-15.062a10.638 10.638 0 0 1 15.093 0z" style="fill:#080808"/><path d="M484.464 351.717H330.653c-5.875 0-10.656 4.781-10.656 10.688 0 5.875 4.781 10.656 10.656 10.656h175.091l-21.28-21.344z" style="fill:#ffce54"/><path d="M85.354 383.717c-3.969 0-7.766-2.188-9.609-6-13.437-27.656-21.796-58.281-24.859-91.029-2.406-26.023-1.5-53.445 2.734-81.506 7.172-47.687 21.343-80.483 21.937-81.858 2.359-5.406 8.656-7.859 14.046-5.5 5.406 2.343 7.875 8.64 5.516 14.031-.141.312-13.796 32.046-20.5 77.108-3.922 26.281-4.734 51.89-2.453 76.132 2.844 30.029 10.5 58.061 22.765 83.311 2.578 5.281.375 11.688-4.922 14.25a10.787 10.787 0 0 1-4.655 1.061z" style="fill:#656d78"/><path d="m343.419 106.479-49.171-9.812-18.687-28.281a10.624 10.624 0 0 0-8.898-4.796h-74.687a10.64 10.64 0 0 0-8.906 4.796l-17.953 27.203h-26.452c-5.891 0-10.656 4.781-10.656 10.671v53.327c0 5.891 4.766 10.671 10.656 10.671h202.66c5.891 0 10.672-4.781 10.672-10.671v-42.64c0-5.093-3.594-9.468-8.578-10.468z" style="fill:#f5f7fa"/><path d="M192.008 143.588c-14.703 0-26.671 11.969-26.671 26.671 0 14.703 11.969 26.672 26.671 26.672 14.703 0 26.656-11.969 26.656-26.672 0-14.702-11.953-26.671-26.656-26.671zM287.999 143.588c-14.703 0-26.664 11.969-26.664 26.671 0 14.703 11.961 26.672 26.664 26.672 14.702 0 26.655-11.969 26.655-26.672 0-14.702-11.953-26.671-26.655-26.671z" style="fill:#434a54"/></svg>